# xmcd
#
# Track frame offsets:
#	150
#	24717
#	56010
#	89180
#	119280
#	152415
#	189752
#	212302
#	239770
#	264377
#	297480
#
# Disc length: 4526
#
# Revision: 3
# Processed by: cddbd v1.5.1PL0 Copyright (c) Steve Scherf et al.
# Submitted via: audiograbber 1.83.01
# Normalized: r2:DSETVAR1
#
DISCID=9b11ac0b
DTITLE=Various Artist - Can't Stop Dancing - Vol. 4
DYEAR=1900
DGENRE=Dance
TTITLE0=D Train - Walk On By
TTITLE1=Sylvester - Do You Wanna Funk
TTITLE2=Lime - Unexpected Lovers
TTITLE3=Tavares - Just An Illusion
TTITLE4=France Joli - Gonna Get Over You
TTITLE5=Freddie James - Everybody Get Up and Boogie
TTITLE6=Carol Douglas - Doctor's Orders
TTITLE7=Carol Jiani - Hit 'N Run Lover
TTITLE8=Tracy Webber - Sure Shot
TTITLE9=Voggue - Love Buzz
TTITLE10=Cloud One - Atmosphere Strut
EXTD=
EXTT0=D Train\n
EXTT1=Sylvester\n
EXTT2=Lime\n
EXTT3=Tavares\n
EXTT4=France Joli\n
EXTT5=Freddie James\n
EXTT6=Carol Douglas\n
EXTT7=Carol Jiani\n
EXTT8=Tracy Weber\n
EXTT9=Voggue\n
EXTT10=Cloud One\n
PLAYORDER=
